<svg xmlns="http://www.w3.org/2000/svg" width="500" height="200" viewBox="0 0 500 200"><g transform="translate(48.84294857039324,36.74786686006353)translate(117.16798400878906,63.60000443458558)rotate(0)translate(-117.16798400878906,-63.60000443458558)" opacity="1"><path transform="translate(6,103.168)rotate(0)" d="M63.26-49.44L63.26-49.44Q71.90-49.44 75.98-44.11L75.98-44.11L75.98-44.11Q80.06-38.78 80.06-30.05L80.06-30.05L80.06-2.88L80.06-2.88Q80.06-1.63 79.25-0.82L79.25-0.82L79.25-0.82Q78.43 0 77.18 0L77.18 0L77.18 0Q75.94 0 75.12-0.82L75.12-0.82L75.12-0.82Q74.30-1.63 74.30-2.88L74.30-2.88L74.30-29.76L74.30-29.76Q74.30-36.10 71.28-40.08L71.28-40.08L71.28-40.08Q68.26-44.06 61.92-44.06L61.92-44.06L61.92-44.06Q57.89-44.06 54.29-42.14L54.29-42.14L54.29-42.14Q50.69-40.22 48.48-36.91L48.48-36.91L48.48-36.91Q46.27-33.60 46.27-29.76L46.27-29.76L46.27-2.88L46.27-2.88Q46.27-1.63 45.46-0.82L45.46-0.82L45.46-0.82Q44.64 0 43.39 0L43.39 0L43.39 0Q42.14 0 41.33-0.82L41.33-0.82L41.33-0.82Q40.51-1.63 40.51-2.88L40.51-2.88L40.51-30.05L40.51-30.05Q40.51-36.29 37.63-40.18L37.63-40.18L37.63-40.18Q34.75-44.06 28.61-44.06L28.61-44.06L28.61-44.06Q24.67-44.06 21.17-42.14L21.17-42.14L21.17-42.14Q17.66-40.22 15.50-37.01L15.50-37.01L15.50-37.01Q13.34-33.79 13.34-30.05L13.34-30.05L13.34-2.88L13.34-2.88Q13.34-1.63 12.53-0.82L12.53-0.82L12.53-0.82Q11.71 0 10.46 0L10.46 0L10.46 0Q9.22 0 8.40-0.82L8.40-0.82L8.40-0.82Q7.58-1.63 7.58-2.88L7.58-2.88L7.58-45.89L7.58-45.89Q7.58-47.14 8.40-47.95L8.40-47.95L8.40-47.95Q9.22-48.77 10.46-48.77L10.46-48.77L10.46-48.77Q11.71-48.77 12.53-47.95L12.53-47.95L12.53-47.95Q13.34-47.14 13.34-45.89L13.34-45.89L13.34-40.32L13.34-40.32Q15.94-44.26 20.35-46.85L20.35-46.85L20.35-46.85Q24.77-49.44 29.66-49.44L29.66-49.44L29.66-49.44Q35.23-49.44 39.26-46.75L39.26-46.75L39.26-46.75Q43.30-44.06 45.02-38.88L45.02-38.88L45.02-38.88Q47.04-43.10 52.42-46.27L52.42-46.27L52.42-46.27Q57.79-49.44 63.26-49.44L63.26-49.44ZM100.70-2.88L100.70-2.88Q100.70-1.63 99.89-0.82L99.89-0.82L99.89-0.82Q99.07 0 97.82 0L97.82 0L97.82 0Q96.58 0 95.76-0.82L95.76-0.82L95.76-0.82Q94.94-1.63 94.94-2.88L94.94-2.88L94.94-47.04L94.94-47.04Q94.94-48.29 95.76-49.10L95.76-49.10L95.76-49.10Q96.58-49.92 97.82-49.92L97.82-49.92L97.82-49.92Q99.07-49.92 99.89-49.10L99.89-49.10L99.89-49.10Q100.70-48.29 100.70-47.04L100.70-47.04L100.70-2.88ZM97.82-56.35L97.82-56.35Q95.90-56.35 94.85-57.26L94.85-57.26L94.85-57.26Q93.79-58.18 93.79-59.90L93.79-59.90L93.79-60.86L93.79-60.86Q93.79-62.59 94.90-63.50L94.90-63.50L94.90-63.50Q96-64.42 97.92-64.42L97.92-64.42L97.92-64.42Q101.76-64.42 101.76-60.86L101.76-60.86L101.76-59.90L101.76-59.90Q101.76-58.18 100.75-57.26L100.75-57.26L100.75-57.26Q99.74-56.35 97.82-56.35L97.82-56.35ZM138.82-50.21L138.82-50.21Q147.74-50.21 151.92-44.98L151.92-44.98L151.92-44.98Q156.10-39.74 156.10-31.10L156.10-31.10L156.10-2.88L156.10-2.88Q156.10-1.63 155.23-0.82L155.23-0.82L155.23-0.82Q154.37 0 153.22 0L153.22 0L153.22 0Q151.97 0 151.15-0.82L151.15-0.82L151.15-0.82Q150.34-1.63 150.34-2.88L150.34-2.88L150.34-30.82L150.34-30.82Q150.34-37.06 147.22-40.94L147.22-40.94L147.22-40.94Q144.10-44.83 137.57-44.83L137.57-44.83L137.57-44.83Q133.44-44.83 129.74-42.91L129.74-42.91L129.74-42.91Q126.05-40.99 123.74-37.78L123.74-37.78L123.74-37.78Q121.44-34.56 121.44-30.82L121.44-30.82L121.44-2.88L121.44-2.88Q121.44-1.63 120.62-0.82L120.62-0.82L120.62-0.82Q119.81 0 118.56 0L118.56 0L118.56 0Q117.31 0 116.50-0.82L116.50-0.82L116.50-0.82Q115.68-1.63 115.68-2.88L115.68-2.88L115.68-45.89L115.68-45.89Q115.68-47.14 116.50-47.95L116.50-47.95L116.50-47.95Q117.31-48.77 118.56-48.77L118.56-48.77L118.56-48.77Q119.81-48.77 120.62-47.95L120.62-47.95L120.62-47.95Q121.44-47.14 121.44-45.89L121.44-45.89L121.44-40.61L121.44-40.61Q124.03-44.74 128.88-47.47L128.88-47.47L128.88-47.47Q133.73-50.21 138.82-50.21L138.82-50.21ZM190.37-43.49L180.77-43.49L180.77-11.33L180.77-11.33Q180.77-7.68 182.11-6.38L182.11-6.38L182.11-6.38Q183.46-5.09 185.66-5.09L185.66-5.09L185.66-5.09Q186.24-5.09 187.10-5.33L187.10-5.33L187.10-5.33Q187.97-5.57 188.45-5.57L188.45-5.57L188.45-5.57Q189.31-5.57 189.94-4.85L189.94-4.85L189.94-4.85Q190.56-4.13 190.56-3.17L190.56-3.17L190.56-3.17Q190.56-1.82 189.02-0.91L189.02-0.91L189.02-0.91Q187.49 0 185.38 0L185.38 0L185.38 0Q182.78 0 180.77-0.48L180.77-0.48L180.77-0.48Q178.75-0.96 176.88-3.36L176.88-3.36L176.88-3.36Q175.01-5.76 175.01-11.04L175.01-11.04L175.01-43.49L168-43.49L168-43.49Q166.85-43.49 166.03-44.26L166.03-44.26L166.03-44.26Q165.22-45.02 165.22-46.18L165.22-46.18L165.22-46.18Q165.22-47.33 166.03-48.10L166.03-48.10L166.03-48.10Q166.85-48.86 168-48.86L168-48.86L175.01-48.86L175.01-59.52L175.01-59.52Q175.01-60.77 175.82-61.58L175.82-61.58L175.82-61.58Q176.64-62.40 177.89-62.40L177.89-62.40L177.89-62.40Q179.14-62.40 179.95-61.58L179.95-61.58L179.95-61.58Q180.77-60.77 180.77-59.52L180.77-59.52L180.77-48.86L190.37-48.86L190.37-48.86Q191.42-48.86 192.24-48L192.24-48L192.24-48Q193.06-47.14 193.06-46.08L193.06-46.08L193.06-46.08Q193.06-44.93 192.29-44.21L192.29-44.21L192.29-44.21Q191.52-43.49 190.37-43.49L190.37-43.49Z" fill="#5ab93b"/></g><g transform="translate(244.99535038734768,37.0053367400734)translate(114.5279769897461,63.60000443458558)rotate(0)translate(-114.5279769897461,-63.60000443458558)" opacity="1"><path transform="translate(6,103.168)rotate(0)" d="M4.80-7.78L4.80-7.78Q4.03-9.02 4.03-9.89L4.03-9.89L4.03-9.89Q4.03-11.14 5.28-11.81L5.28-11.81L5.28-11.81Q5.86-12.38 6.82-12.38L6.82-12.38L6.82-12.38Q7.97-12.38 8.93-11.42L8.93-11.42L8.93-11.42Q14.59-3.94 24-3.94L24-3.94L24-3.94Q28.61-3.94 32.02-6.10L32.02-6.10L32.02-6.10Q35.42-8.26 35.42-12.38L35.42-12.38L35.42-12.38Q35.42-16.42 32.26-18.43L32.26-18.43L32.26-18.43Q29.09-20.45 23.42-21.89L23.42-21.89L23.42-21.89Q15.46-23.90 10.94-27.12L10.94-27.12L10.94-27.12Q6.43-30.34 6.43-36.58L6.43-36.58L6.43-36.58Q6.43-40.51 8.64-43.63L8.64-43.63L8.64-43.63Q10.85-46.75 14.64-48.48L14.64-48.48L14.64-48.48Q18.43-50.21 23.23-50.21L23.23-50.21L23.23-50.21Q27.36-50.21 31.54-48.62L31.54-48.62L31.54-48.62Q35.71-47.04 38.69-43.58L38.69-43.58L38.69-43.58Q39.55-42.91 39.55-41.66L39.55-41.66L39.55-41.66Q39.55-40.51 38.59-39.65L38.59-39.65L38.59-39.65Q37.92-39.07 36.86-39.07L36.86-39.07L36.86-39.07Q35.90-39.07 35.14-39.84L35.14-39.84L35.14-39.84Q32.83-42.43 29.66-43.78L29.66-43.78L29.66-43.78Q26.50-45.12 22.85-45.12L22.85-45.12L22.85-45.12Q18.34-45.12 15.12-43.01L15.12-43.01L15.12-43.01Q11.90-40.90 11.90-36.67L11.90-36.67L11.90-36.67Q12.10-32.83 15.41-30.82L15.41-30.82L15.41-30.82Q18.72-28.80 25.15-27.17L25.15-27.17L25.15-27.17Q30.14-25.92 33.41-24.38L33.41-24.38L33.41-24.38Q36.67-22.85 38.74-20.06L38.74-20.06L38.74-20.06Q40.80-17.28 40.80-12.67L40.80-12.67L40.80-12.67Q40.80-6.43 35.81-2.74L35.81-2.74L35.81-2.74Q30.82 0.96 23.42 0.96L23.42 0.96L23.42 0.96Q11.71 0.96 4.80-7.78L4.80-7.78ZM92.45-49.06L92.45-49.06Q93.70-49.06 94.51-48.19L94.51-48.19L94.51-48.19Q95.33-47.33 95.33-46.08L95.33-46.08L95.33-2.88L95.33-2.88Q95.33-1.63 94.51-0.82L94.51-0.82L94.51-0.82Q93.70 0 92.45 0L92.45 0L92.45 0Q91.20 0 90.38-0.82L90.38-0.82L90.38-0.82Q89.57-1.63 89.57-2.88L89.57-2.88L89.57-9.31L89.57-9.31Q87.17-4.99 82.37-2.02L82.37-2.02L82.37-2.02Q77.57 0.96 71.90 0.96L71.90 0.96L71.90 0.96Q65.47 0.96 60.34-2.40L60.34-2.40L60.34-2.40Q55.20-5.76 52.27-11.62L52.27-11.62L52.27-11.62Q49.34-17.47 49.34-24.77L49.34-24.77L49.34-24.77Q49.34-32.06 52.32-37.87L52.32-37.87L52.32-37.87Q55.30-43.68 60.43-46.94L60.43-46.94L60.43-46.94Q65.57-50.21 71.81-50.21L71.81-50.21L71.81-50.21Q77.57-50.21 82.37-47.42L82.37-47.42L82.37-47.42Q87.17-44.64 89.57-40.13L89.57-40.13L89.57-46.08L89.57-46.08Q89.57-47.33 90.38-48.19L90.38-48.19L90.38-48.19Q91.20-49.06 92.45-49.06L92.45-49.06ZM72.48-4.42L72.48-4.42Q77.47-4.42 81.46-7.06L81.46-7.06L81.46-7.06Q85.44-9.70 87.70-14.35L87.70-14.35L87.70-14.35Q89.95-19.01 89.95-24.77L89.95-24.77L89.95-24.77Q89.95-30.34 87.70-34.94L87.70-34.94L87.70-34.94Q85.44-39.55 81.46-42.19L81.46-42.19L81.46-42.19Q77.47-44.83 72.48-44.83L72.48-44.83L72.48-44.83Q67.49-44.83 63.50-42.24L63.50-42.24L63.50-42.24Q59.52-39.65 57.26-35.09L57.26-35.09L57.26-35.09Q55.01-30.53 55.01-24.77L55.01-24.77L55.01-24.77Q55.01-19.01 57.22-14.35L57.22-14.35L57.22-14.35Q59.42-9.70 63.41-7.06L63.41-7.06L63.41-7.06Q67.39-4.42 72.48-4.42L72.48-4.42ZM127.49-65.57L127.49-65.57Q124.42-65.57 122.74-63.55L122.74-63.55L122.74-63.55Q121.06-61.54 121.06-57.98L121.06-57.98L121.06-48.10L131.81-48.10L131.81-48.10Q132.86-48.10 133.68-47.33L133.68-47.33L133.68-47.33Q134.50-46.56 134.50-45.41L134.50-45.41L134.50-45.41Q134.50-44.26 133.68-43.49L133.68-43.49L133.68-43.49Q132.86-42.72 131.81-42.72L131.81-42.72L121.06-42.72L121.06-2.88L121.06-2.88Q121.06-1.63 120.24-0.82L120.24-0.82L120.24-0.82Q119.42 0 118.18 0L118.18 0L118.18 0Q116.93 0 116.11-0.82L116.11-0.82L116.11-0.82Q115.30-1.63 115.30-2.88L115.30-2.88L115.30-42.72L108.29-42.72L108.29-42.72Q107.14-42.72 106.37-43.54L106.37-43.54L106.37-43.54Q105.60-44.35 105.60-45.41L105.60-45.41L105.60-45.41Q105.60-46.66 106.37-47.38L106.37-47.38L106.37-47.38Q107.14-48.10 108.29-48.10L108.29-48.10L115.30-48.10L115.30-57.98L115.30-57.98Q115.30-64.03 118.80-67.34L118.80-67.34L118.80-67.34Q122.30-70.66 128.16-70.66L128.16-70.66L128.16-70.66Q130.85-70.66 133.15-69.84L133.15-69.84L133.15-69.84Q135.46-69.02 135.46-67.20L135.46-67.20L135.46-67.20Q135.46-66.05 134.69-65.28L134.69-65.28L134.69-65.28Q133.92-64.51 132.96-64.51L132.96-64.51L132.96-64.51Q132.10-64.51 130.85-64.99L130.85-64.99L130.85-64.99Q128.74-65.57 127.49-65.57L127.49-65.57ZM185.76-27.36L185.76-27.36Q185.76-26.21 184.90-25.39L184.90-25.39L184.90-25.39Q184.03-24.58 182.88-24.58L182.88-24.58L146.59-24.58L146.59-24.58Q146.59-18.82 148.94-14.26L148.94-14.26L148.94-14.26Q151.30-9.70 155.66-7.06L155.66-7.06L155.66-7.06Q160.03-4.42 165.98-4.42L165.98-4.42L165.98-4.42Q170.59-4.42 174.24-6.34L174.24-6.34L174.24-6.34Q177.89-8.26 180.10-11.23L180.10-11.23L180.10-11.23Q181.15-12.10 182.11-12.10L182.11-12.10L182.11-12.10Q183.07-12.10 183.84-11.33L183.84-11.33L183.84-11.33Q184.61-10.56 184.61-9.60L184.61-9.60L184.61-9.60Q184.61-8.54 183.65-7.58L183.65-7.58L183.65-7.58Q180.58-3.84 175.92-1.44L175.92-1.44L175.92-1.44Q171.26 0.96 166.08 0.96L166.08 0.96L166.08 0.96Q158.69 0.96 153.02-2.21L153.02-2.21L153.02-2.21Q147.36-5.38 144.19-11.09L144.19-11.09L144.19-11.09Q141.02-16.80 141.02-24.29L141.02-24.29L141.02-24.29Q141.02-32.16 144.14-38.06L144.14-38.06L144.14-38.06Q147.26-43.97 152.45-47.09L152.45-47.09L152.45-47.09Q157.63-50.21 163.49-50.21L163.49-50.21L163.49-50.21Q169.25-50.21 174.29-47.52L174.29-47.52L174.29-47.52Q179.33-44.83 182.50-39.65L182.50-39.65L182.50-39.65Q185.66-34.46 185.76-27.36L185.76-27.36ZM163.49-44.64L163.49-44.64Q157.92-44.64 153.17-40.80L153.17-40.80L153.17-40.80Q148.42-36.96 147.07-29.76L147.07-29.76L179.81-29.76L179.81-30.53L179.81-30.53Q179.33-34.85 176.93-38.06L176.93-38.06L176.93-38.06Q174.53-41.28 170.93-42.96L170.93-42.96L170.93-42.96Q167.33-44.64 163.49-44.64L163.49-44.64Z" fill="#3B3B3B"/></g><g transform="translate(95.12428921181491,17.04287475946981)translate(55,33.312894471299494)rotate(0)translate(-55,-33.312894471299494) scale(1.2409116787282595,1.2409116787282595)" opacity="1"><defs class="defs"/><path transform="translate(-5.6775084377083616,-23.155)" d="M5.833,37.065c0,0 -4.161,33.195 30.567,33.195c0,0 8.655,-33.195 -30.567,-33.195zM94.074,23.155c-47.241,0 -51.611,29.712 -50.744,44.967c7.981,-23.02 29.738,-28.101 29.738,-28.101c-20.77,12.557 -25.03,35.225 -25.307,36.825c52.753,-2.036 46.313,-53.691 46.313,-53.691z" fill="#5ab93b" class="fill c1"/></g></svg>